<svg width="29" height="32" viewBox="0 0 29 32" fill="none" xmlns="http://www.w3.org/2000/svg">
<g clip-path="url(#clip0_349_4063)">
<path d="M24.7058 32.0002H16.4705V23.3335H11.7646V32.0002H3.5293V18.0002C3.5293 17.8234 3.59127 17.6538 3.70159 17.5288C3.8119 17.4037 3.96152 17.3335 4.11753 17.3335C4.27354 17.3335 4.42316 17.4037 4.53348 17.5288C4.64379 17.6538 4.70577 17.8234 4.70577 18.0002V30.6668H10.5881V22.0002H17.6469V30.6668H23.5293V18.6668C23.5293 18.49 23.5913 18.3204 23.7016 18.1954C23.8119 18.0704 23.9615 18.0002 24.1175 18.0002C24.2735 18.0002 24.4232 18.0704 24.5335 18.1954C24.6438 18.3204 24.7058 18.49 24.7058 18.6668V32.0002Z" fill="white"/>
<path d="M27.6472 18.0001C27.4957 18.0004 27.3501 17.9342 27.2407 17.8155L14.1178 3.58947L0.994809 17.8155C0.882092 17.9377 0.731136 18.0042 0.57515 18.0004C0.419163 17.9965 0.270925 17.9226 0.163044 17.7948C0.0551631 17.6671 -0.00352242 17.496 -0.000102639 17.3192C0.00331714 17.1424 0.0685621 16.9744 0.181279 16.8521L14.1178 1.74414L28.0536 16.8515C28.1386 16.9435 28.1973 17.0622 28.2221 17.1923C28.247 17.3224 28.237 17.458 28.1932 17.5816C28.1495 17.7052 28.0741 17.8111 27.9768 17.8857C27.8795 17.9603 27.7647 18.0002 27.6472 18.0001ZM22.9413 10.0001C22.7853 10.0001 22.6357 9.9299 22.5253 9.80488C22.415 9.67985 22.353 9.51028 22.353 9.33347V5.33347H18.8236C18.6676 5.33347 18.518 5.26324 18.4077 5.13821C18.2974 5.01319 18.2354 4.84362 18.2354 4.66681C18.2354 4.49 18.2974 4.32043 18.4077 4.1954C18.518 4.07038 18.6676 4.00014 18.8236 4.00014H23.5295V9.33347C23.5295 9.51028 23.4675 9.67985 23.3572 9.80488C23.2469 9.9299 23.0973 10.0001 22.9413 10.0001Z" fill="white"/>
<ellipse cx="22.3531" cy="18.6667" rx="5.88235" ry="6.66667" fill="#273A6A"/>
</g>
<defs>
<clipPath id="clip0_349_4063">
<rect width="28.2353" height="32" fill="white"/>
</clipPath>
</defs>
</svg>
